<svg width="84" height="83" viewBox="0 0 84 83" fill="none" xmlns="http://www.w3.org/2000/svg">
<path d="M30.9148 11.8634L20.3429 23.7268L20.1827 21.2103C20.0866 19.4847 19.8624 18.55 19.542 18.3343C19.2857 18.1546 17.2995 17.9748 15.1531 17.9748C12.0456 17.9748 11.1486 18.0827 10.7641 18.55C10.3156 19.0174 10.2516 20.3116 10.2516 27.0701V35.0509L5.12578 40.8029C2.3066 43.9664 0 46.8065 0 47.13C0 47.4536 0.256289 47.9569 0.57665 48.2804C1.05719 48.7837 1.92217 48.8916 5.70243 48.8916H10.2516V65.3205C10.2516 75.0629 10.3797 82.0012 10.5719 82.3247C10.8282 82.7921 14.7046 82.864 41.679 82.9718C68.9737 83.0437 72.5938 83.0078 73.2666 82.5045L74.0034 81.9652V65.4284V48.8916H78.3603C80.731 48.8916 82.9735 48.7118 83.3259 48.5321C85.0559 47.4536 85.0238 47.4176 63.3354 23.0797C49.8161 7.90893 42.5439 0 42.1275 0C41.711 0 37.7706 4.17016 30.9148 11.8634ZM36.8736 33.1456C37.8667 33.6489 39.5646 35.015 40.6538 36.1654L42.6401 38.2864L44.402 36.417C45.3631 35.4104 47.029 34.0803 48.1182 33.4691C49.8482 32.4985 50.4248 32.3547 52.7314 32.3547C56.1913 32.3547 58.3698 33.2534 60.7084 35.6261C63.015 37.9988 64.1363 40.5872 64.3285 43.9664C64.5527 47.9928 64.1042 49.251 61.7336 51.3361C60.6443 52.3068 59.2668 53.3853 58.7222 53.7448C58.1455 54.1402 57.697 54.6075 57.7291 54.8232C57.8892 55.8298 57.2165 58.9575 56.4796 60.3235C55.871 61.5099 55.5186 61.8334 55.006 61.7615C53.8847 61.5818 53.9808 60.2876 55.2623 57.6992C55.903 56.405 56.3515 55.3625 56.2234 55.3625C56.0952 55.3625 55.5506 55.9017 55.038 56.5129C53.9808 57.7711 53.4042 59.317 53.0518 61.6896L52.8275 63.1636L53.7886 62.9838C54.3332 62.9119 54.7817 62.9119 54.7817 62.9838C54.7817 63.0917 53.5003 64.314 51.9626 65.716C48.0862 69.2391 42.576 73.3733 42.1595 73.0857C38.2191 70.4973 31.7478 64.6735 28.2558 60.6111C25.8852 57.843 22.2331 52.2349 22.5534 51.8754C22.6175 51.8035 23.5465 52.0551 24.6037 52.4506C27.5831 53.565 31.94 54.0683 36.2008 53.7807L39.917 53.4931L39.5966 51.5518C39.2442 49.4667 38.7637 49.0354 37.1298 49.3229C35.9765 49.5027 35.9765 50.3295 37.1619 50.3295C37.7385 50.3295 38.0909 50.4733 37.9628 50.689C37.8667 50.8688 37.4182 51.0485 37.0017 51.0485C36.5852 51.0485 36.1367 51.1923 36.0406 51.408C35.9125 51.6237 36.361 51.7675 37.1298 51.7675C38.4754 51.7675 39.1161 52.2708 38.2511 52.6303C37.9628 52.7382 37.258 52.846 36.6813 52.846C35.7203 52.846 35.6241 52.7382 35.4319 51.5878C35.3038 50.9047 35.3038 49.7543 35.4319 49.0354C35.6241 47.7771 35.6882 47.7412 36.8095 47.9569C37.4502 48.0647 38.9559 48.1726 40.1412 48.1726C41.743 48.1726 42.3197 48.2804 42.2236 48.604C42.1275 48.8556 41.743 49.1432 41.2945 49.251C40.5897 49.4667 40.5257 49.6465 40.5897 51.408C40.6538 52.4865 40.782 53.4572 40.9421 53.6369C41.2945 54.0324 46.7727 54.4278 48.1823 54.1402C49.656 53.8167 49.656 53.3493 48.1503 53.0258L46.9329 52.7382L48.0542 52.4146C50.2967 51.7316 50.7452 50.5093 48.6308 50.8328L47.2533 51.0845L48.5347 50.2936C49.2395 49.8622 49.9123 49.3229 50.0404 49.1073C50.4889 48.3523 49.7521 48.1726 48.5988 48.7118C46.9329 49.4667 46.3883 49.3589 47.7979 48.5321C49.0152 47.7771 49.5278 47.2019 49.2075 46.8424C49.1113 46.7346 48.0221 47.0222 46.7727 47.4536C45.5233 47.885 44.4341 48.1726 44.338 48.0647C44.2419 47.9569 44.402 47.4536 44.6904 46.9503C45.1709 46.1234 45.1709 46.0156 44.7544 45.7999C44.4981 45.692 43.5691 46.0156 42.7041 46.5189C41.4227 47.3098 40.7499 47.4536 38.5715 47.4536C35.464 47.4536 31.075 46.6627 28.7364 45.6561C26.7181 44.7933 26.7181 44.7933 27.2307 45.4763C27.7433 46.1953 27.7433 49.1073 27.2307 49.7903C26.9103 50.2217 27.0064 50.5812 27.7112 51.6237C28.1918 52.3068 28.5121 52.9539 28.4481 53.0617C28.1918 53.3493 26.622 51.7675 26.4298 51.0485C26.3016 50.6531 26.1094 50.3295 25.9492 50.3295C25.7891 50.3295 25.725 50.5452 25.8211 50.8328C25.9172 51.1204 25.8531 51.444 25.6609 51.5878C25.0522 51.9832 24.86 50.689 25.1804 48.4602C25.3726 47.3098 25.4046 46.1594 25.2765 45.9437C24.9561 45.4044 24.828 45.5482 24.4435 46.9143C24.2834 47.4895 23.8349 48.1366 23.4504 48.3523C22.9699 48.568 22.7456 49.0354 22.7456 49.6824C22.7456 50.8328 22.2331 51.3361 21.9768 50.4374C21.9127 50.0779 21.8486 48.1726 21.8807 46.1953C21.9127 43.6429 22.0408 42.4925 22.3612 42.2409C22.7136 41.9173 22.6816 41.7016 22.1369 40.9467C21.5603 40.1198 21.5603 39.976 22.0088 38.9335C23.2582 36.0216 26.1094 33.4332 29.1208 32.4626C31.3313 31.7795 34.7912 32.0671 36.8736 33.1456ZM31.3313 47.166C31.972 47.885 31.8119 51.3002 31.075 52.127C30.0499 53.2774 28.1918 52.0911 28.1918 50.2576C28.1918 47.9928 30.2421 45.9437 31.3313 47.166ZM34.9834 48.2085C34.9194 48.4961 34.7592 49.6824 34.6631 50.8688C34.4388 52.9898 34.4068 53.0258 33.4777 53.0258C32.6768 53.0258 32.5166 52.882 32.4205 52.0192C32.2924 50.9766 32.9011 50.689 33.2214 51.6237C33.4777 52.4506 33.9583 51.5518 33.9583 50.1498C33.9583 48.568 34.3107 47.4176 34.7271 47.5614C34.9194 47.6693 35.0155 47.9569 34.9834 48.2085ZM45.5874 50.8688C45.8116 52.6663 45.7796 53.0617 45.3311 53.4572C44.5943 54.0324 43.0565 53.3493 42.1595 52.0192L41.5188 51.0485L42.608 49.7903C43.4089 48.8556 43.9535 48.5321 44.5302 48.604C45.235 48.7118 45.3631 48.9275 45.5874 50.8688Z" fill="#033240"/>
<path d="M24.0593 43.2116C24.3156 43.4633 24.636 43.9666 24.7641 44.2901C24.8922 44.7215 25.1485 44.8294 25.5009 44.6856C25.9815 44.4699 25.9815 44.4339 25.4369 43.9666C25.1165 43.679 24.5398 43.2835 24.1875 43.1038C23.6428 42.7802 23.6108 42.8162 24.0593 43.2116Z" fill="#033240"/>
<path d="M22.97 45.1889C22.6176 45.5844 22.7137 46.6629 23.1622 46.9505C23.3544 47.0943 23.4505 47.0943 23.3224 46.9145C23.1942 46.7707 23.3224 46.4112 23.5787 46.1236C23.835 45.836 23.9631 45.4406 23.867 45.2608C23.6428 44.8654 23.2583 44.8294 22.97 45.1889Z" fill="#033240"/>
<path d="M26.2697 46.6266C26.2697 47.058 26.1736 47.6691 26.0775 47.9567C25.9494 48.3881 26.0134 48.496 26.3658 48.3162C27.1027 47.9927 27.3269 47.022 26.7503 46.4109C26.3338 45.9076 26.2697 45.9435 26.2697 46.6266Z" fill="#033240"/>
<path d="M38.7639 56.7286C38.7639 57.0881 38.9882 57.6992 39.2445 58.0947C39.5007 58.4542 39.725 59.4608 39.725 60.2876C39.725 61.1504 39.8852 61.8334 40.0454 61.8334C40.2376 61.8334 40.3657 61.5458 40.3657 61.1864C40.3657 60.8628 40.654 60.1798 41.0064 59.6765C41.4549 58.9934 41.7112 58.8856 41.9675 59.1732C42.2559 59.4967 42.1277 59.8203 41.519 60.5033C41.0705 61.0426 40.6861 61.8694 40.6861 62.3727C40.6861 63.2714 41.1346 63.595 41.487 62.9119C41.6151 62.6962 41.8073 62.6243 41.9675 62.7322C42.0957 62.84 42.416 62.0491 42.6082 61.0066C42.8325 60 43.1529 58.9575 43.313 58.7418C43.5053 58.4542 43.313 58.2385 42.7364 58.0947C42.2559 57.9509 41.3588 57.4476 40.7181 56.9443C39.3726 55.9017 38.7639 55.8298 38.7639 56.7286Z" fill="#033240"/>
<path d="M55.9993 57.7352C54.9741 59.4248 54.4615 61.2942 55.1343 61.0425C55.711 60.8268 57.1205 57.7352 56.9604 56.9443C56.8963 56.4769 56.672 56.6567 55.9993 57.7352Z" fill="#033240"/>
<path d="M34.5029 57.0162C34.0864 57.5195 34.2786 57.8431 35.5601 58.634C37.226 59.7125 37.0017 59.8922 35.1436 58.9935C34.2786 58.5621 33.5738 58.4183 33.4777 58.598C33.1894 59.1373 33.5418 59.6046 34.8553 60.4315L36.0406 61.1504L34.8553 60.9707C32.7089 60.6472 33.0613 61.7256 35.4319 62.6963L36.6813 63.2355H35.3358C33.9903 63.2715 33.5098 63.7388 34.4068 64.0983C34.6631 64.2062 35.7203 64.4219 36.7774 64.5657C38.5715 64.7814 38.6676 64.7454 38.8598 63.9545C39.2122 62.5165 39.1161 62.4087 38.2831 63.2715C37.3221 64.2781 36.9056 64.0264 37.6104 62.8401C37.8987 62.3727 38.3152 61.2223 38.5715 60.3236L39.02 58.6699L37.0337 57.8071C35.9765 57.3757 34.9834 56.9443 34.8873 56.8724C34.7912 56.8365 34.631 56.9084 34.5029 57.0162Z" fill="#033240"/>
<path d="M52.155 56.9804C52.0589 57.0882 51.0017 57.4118 49.7843 57.6634C48.567 57.951 47.9583 58.2026 48.4388 58.2026C49.0796 58.2386 49.2718 58.3824 49.1436 58.7778C49.0155 59.0654 48.7592 59.3171 48.5349 59.3171C48.3107 59.3171 48.0224 59.5687 47.9263 59.8923C47.6379 60.6832 47.67 60.7551 48.2146 60.7551C48.9514 60.7551 48.7912 61.3303 47.8622 62.0133C46.9011 62.6964 46.9972 63.0559 48.1185 62.7323C48.7592 62.5526 48.9194 62.1571 49.2397 60.3596C49.432 59.1373 49.6882 58.0948 49.7843 57.987C50.2008 57.5196 50.6173 58.4183 50.6493 59.7844V61.2943L51.1619 59.4968C51.4182 58.5262 51.8667 57.5196 52.155 57.268C52.4754 57.0163 52.6035 56.8006 52.5074 56.8006C52.4113 56.8006 52.2511 56.8725 52.155 56.9804Z" fill="#033240"/>
<path d="M43.9214 59.389C43.9535 60.0361 44.0496 61.4741 44.1777 62.5526L44.402 64.5298L44.6262 61.9414C44.7864 60.5034 45.0427 59.2092 45.2349 59.1014C45.4592 58.9216 45.5232 59.4609 45.3631 60.8989C45.1388 62.8761 45.1388 62.9121 45.9077 62.8402C46.6125 62.7683 46.7406 62.5526 46.9328 61.1146C47.0289 60.2158 47.1891 59.2092 47.2852 58.8497C47.4454 58.3105 47.2212 58.2386 45.6834 58.2386H43.8894L43.9214 59.389Z" fill="#033240"/>
<path d="M52.0267 59.137C51.9306 59.4246 51.6743 60.3952 51.45 61.294C51.2578 62.2287 50.9375 62.9477 50.7773 62.9477C50.5851 62.9477 50.2967 62.3365 50.1045 61.5816L49.7201 60.2155L49.624 61.6535C49.5599 62.4444 49.3997 63.0196 49.3036 62.9117C49.2075 62.8039 48.8872 62.9477 48.6309 63.1634C48.3746 63.415 47.6377 63.5948 46.997 63.5588C46.3243 63.5229 45.7156 63.6307 45.5554 63.8105C45.3311 64.0621 49.4638 63.8105 51.45 63.415C52.2189 63.2712 52.4111 63.0555 52.3791 62.4444C52.3471 62.013 52.5072 60.9704 52.6995 60.1077C53.0518 58.8135 53.0518 58.5978 52.6674 58.5978C52.4111 58.5978 52.1228 58.8494 52.0267 59.137Z" fill="#033240"/>
<path d="M38.7639 61.474C38.7639 61.7257 38.86 61.8335 38.9882 61.7257C39.0843 61.5819 39.0843 61.3662 38.9882 61.2224C38.86 61.1145 38.7639 61.2224 38.7639 61.474Z" fill="#033240"/>
<path d="M39.5966 63.1997C39.4685 63.8467 39.4044 64.4219 39.4685 64.4938C39.5005 64.5298 40.4937 64.4938 41.679 64.386C43.6973 64.1703 43.7613 64.1343 43.5691 63.2716L43.3769 62.4088L42.8323 63.2716C42.3838 63.9905 42.2236 64.0624 41.9993 63.667C41.8071 63.3435 41.647 63.3075 41.5188 63.5951C41.0703 64.386 40.0772 64.0265 39.9811 62.984C39.8529 62.0133 39.8529 62.0133 39.5966 63.1997Z" fill="#033240"/>
<path d="M29.6654 48.8557C29.0567 49.6107 29.0888 51.4441 29.6975 51.6598C30.21 51.8755 31.2352 49.5028 30.9789 48.7479C30.7226 47.9929 30.3382 48.0289 29.6654 48.8557Z" fill="#033240"/>
<path d="M43.313 50.4014C42.8004 50.9766 42.8324 51.9473 43.3771 52.4506C43.9857 53.0258 44.9148 51.9832 44.7866 50.9047C44.6905 50.0419 43.8896 49.7543 43.313 50.4014Z" fill="#033240"/>
</svg>
